<svg xmlns="http://www.w3.org/2000/svg" width="60" height="60" viewBox="0 0 60 60"><g transform="translate(-4007 190)"><path d="M30,1A29.008,29.008,0,0,0,18.712,56.721,29.008,29.008,0,0,0,41.288,3.279,28.818,28.818,0,0,0,30,1m0-1A30,30,0,1,1,0,30,30,30,0,0,1,30,0Z" transform="translate(4007 -190)" fill="#b7a676"/><path d="M4041.959-157.393h-20v-1h15.865q-.064-.036-.125-.073a6.378,6.378,0,0,1-2.221-3.289l.961-.277a5.466,5.466,0,0,0,1.779,2.711,10.618,10.618,0,0,0,3.772.928.5.5,0,0,1,.469.515A.5.5,0,0,1,4041.959-157.393Z" transform="translate(5.041 -1.107)" fill="#b7a676"/></g></svg>