<svg xmlns="http://www.w3.org/2000/svg" width="20.5" height="10.5" viewBox="0 0 20.5 10.5"><g transform="translate(-331.75 -667.75)"><path d="M1724.646,6395.146l-9.5,9a.5.5,0,1,0,.707.707l9.146-8.665,9.146,8.665a.5.5,0,1,0,.707-.707l-9.5-9a.5.5,0,0,0-.707,0Z" transform="translate(-1383 -5727)" fill="#fff"/><path d="M1725,6394.75a.745.745,0,0,1,.528.217l9.5,9a.743.743,0,0,1,.22.531.75.75,0,0,1-1.277.533l-8.973-8.5-8.972,8.5a.75.75,0,0,1-1.058-1.063l0,0,9.5-9A.746.746,0,0,1,1725,6394.75Zm9.679,9.576-9.5-9a.248.248,0,0,0-.177-.073.252.252,0,0,0-.177.074l0,0-9.5,9a.248.248,0,0,0-.071.175.25.25,0,0,0,.25.25.248.248,0,0,0,.177-.073l0,0,9.318-8.828.172.163,9.151,8.669a.25.25,0,0,0,.427-.176A.247.247,0,0,0,1734.679,6404.326Z" transform="translate(-1383 -5727)" fill="#fff"/></g></svg>