<svg xmlns="http://www.w3.org/2000/svg" width="24" height="24" viewBox="0 0 24 24"><path d="M217.267,946.84l-.021.024a7.373,7.373,0,0,1-5.407,2.982c-3.365.168-7.432-2.037-11.77-6.375s-6.542-8.408-6.375-11.77a7.373,7.373,0,0,1,2.982-5.407l.024-.021a1.6,1.6,0,0,1,1.083-.419,1.673,1.673,0,0,1,.3.027,1.612,1.612,0,0,1,1.154.855l2.59,5.033a1.116,1.116,0,0,1-.84,1.617l-1.573.217a.631.631,0,0,0-.443.969,38.184,38.184,0,0,0,10,10,.631.631,0,0,0,.969-.443l.217-1.573a1.116,1.116,0,0,1,1.617-.84l5.033,2.59a1.626,1.626,0,0,1,.464,2.534Z" transform="translate(-193.686 -925.855)" fill="#fff"/></svg>