<svg id="icon_calendar" xmlns="http://www.w3.org/2000/svg" xmlns:xlink="http://www.w3.org/1999/xlink" width="18" height="18.002" viewBox="0 0 18 18.002">
  <defs>
    <clipPath id="clip-path">
      <rect id="長方形_10" data-name="長方形 10" width="18" height="18.002" fill="#fff"/>
    </clipPath>
  </defs>
  <g id="グループ_25" data-name="グループ 25" clip-path="url(#clip-path)">
    <path id="パス_11" data-name="パス 11" d="M16.373,1.658H15.8v.761a1.358,1.358,0,0,1-1.322,1.388H13.8a1.358,1.358,0,0,1-1.322-1.388V1.658H10.661v.761A1.358,1.358,0,0,1,9.338,3.808H8.662A1.358,1.358,0,0,1,7.339,2.419V1.658H5.523v.761A1.358,1.358,0,0,1,4.2,3.808H3.524A1.358,1.358,0,0,1,2.2,2.419V1.658H1.627A1.674,1.674,0,0,0,0,3.367V16.293A1.674,1.674,0,0,0,1.627,18H16.373A1.674,1.674,0,0,0,18,16.293V3.367a1.675,1.675,0,0,0-1.627-1.709M16.9,16.293a.546.546,0,0,1-.526.552H1.627a.546.546,0,0,1-.526-.552V6.171H16.9ZM8.661,3h.677a.567.567,0,0,0,.551-.578V.578A.567.567,0,0,0,9.339,0H8.661a.567.567,0,0,0-.551.578V2.419A.567.567,0,0,0,8.661,3M3.524,3H4.2a.567.567,0,0,0,.551-.578V.578A.567.567,0,0,0,4.2,0H3.524a.567.567,0,0,0-.551.578V2.419A.567.567,0,0,0,3.524,3M13.8,3h.677a.567.567,0,0,0,.551-.578V.578A.567.567,0,0,0,14.476,0H13.8a.567.567,0,0,0-.551.578V2.419A.567.567,0,0,0,13.8,3M5.738,7.345h-2.9V9.288h2.9Zm4.71,0h-2.9V9.288h2.9Zm4.71,0h-2.9V9.288h2.9Zm-9.42,3.225h-2.9v1.943h2.9Zm4.71,0h-2.9v1.943h2.9Zm4.71,0h-2.9v1.943h2.9Zm-9.42,3.225h-2.9v1.943h2.9Zm4.71,0h-2.9v1.943h2.9Zm4.71,0h-2.9v1.943h2.9Z" fill="#fff"/>
  </g>
</svg>
