<svg xmlns="http://www.w3.org/2000/svg" width="38" height="38" viewBox="0 0 38 38">
  <g id="icon_tel" transform="translate(-1448 -555)">
    <circle id="楕円形_36" data-name="楕円形 36" cx="19" cy="19" r="19" transform="translate(1448 555)" fill="none"/>
    <g id="グループ_430" data-name="グループ 430" transform="translate(1456 559)">
      <path id="パス_641" data-name="パス 641" d="M18.941,21.71a2.045,2.045,0,0,0-2.2-.431l-2.372,1.067a1.486,1.486,0,0,1-1.486-.062,13.463,13.463,0,0,1-4.116-4.478A13.3,13.3,0,0,1,6.9,12.041a1.452,1.452,0,0,1,.688-1.3l2.12-1.5a2,2,0,0,0,.725-2.1L9.5,2.811a1.957,1.957,0,0,0-1.56-1.677A4.669,4.669,0,0,0,4.3,1.946,6.816,6.816,0,0,0,1.277,6.965c-.4,2.706-.627,7,3.082,13.358s7.582,8.31,10.151,9.32a6.964,6.964,0,0,0,5.906-.083,4.6,4.6,0,0,0,2.532-2.713,1.936,1.936,0,0,0-.688-2.175Z" transform="translate(-1.063 -1.063)" fill="none" stroke="#333" stroke-linecap="round" stroke-linejoin="round" stroke-width="1.5"/>
    </g>
  </g>
</svg>
