<svg xmlns="http://www.w3.org/2000/svg" width="17" height="12.988" viewBox="0 0 17 12.988">
  <path id="icon_mail" d="M1610.346,63h-15.692a.7.7,0,0,1-.654-.742V53.092a.755.755,0,0,0,.385.593l7.792,5.024a.588.588,0,0,0,.646,0l7.792-5.024a.755.755,0,0,0,.385-.593v9.166A.7.7,0,0,1,1610.346,63Zm.269-10.8-7.792,5.024a.586.586,0,0,1-.646,0l-7.792-5.024a1.322,1.322,0,0,1-.379-1.076H1594v-.371a.7.7,0,0,1,.654-.742h15.692a.7.7,0,0,1,.654.742v.371h-.006A1.321,1.321,0,0,1,1610.615,52.2Z" transform="translate(-1594 -50.012)" fill="#fff"/>
</svg>
