<svg xmlns="http://www.w3.org/2000/svg" width="20" height="17.75" viewBox="0 0 20 17.75">
  <path id="icon_pc" d="M18.192,0H1.808A1.814,1.814,0,0,0,0,1.808V13.015a1.814,1.814,0,0,0,1.808,1.808H7.862v1.789h-2.9a.256.256,0,0,0-.256.256v.627a.256.256,0,0,0,.256.256H15.041a.256.256,0,0,0,.256-.256v-.627a.256.256,0,0,0-.256-.256h-2.9V14.823h6.054A1.814,1.814,0,0,0,20,13.015V1.808A1.813,1.813,0,0,0,18.192,0M10,14.38a.777.777,0,1,1,.777-.777A.777.777,0,0,1,10,14.38m8.776-2.187H1.224V1.808a.592.592,0,0,1,.584-.584H18.192a.592.592,0,0,1,.584.584Z" fill="#fff"/>
</svg>
